<?xml version="1.0" encoding="UTF-8" standalone="no"?>
<!DOCTYPE svg PUBLIC "-//W3C//DTD SVG 1.1//EN" "http://www.w3.org/Graphics/SVG/1.1/DTD/svg11.dtd">
<!-- Created with Vectornator (http://vectornator.io/) -->
<svg height="100%" stroke-miterlimit="10" style="fill-rule:nonzero;clip-rule:evenodd;stroke-linecap:round;stroke-linejoin:round;" version="1.1" viewBox="0 0 1134 1134" width="100%" xml:space="preserve" xmlns="http://www.w3.org/2000/svg" xmlns:vectornator="http://vectornator.io" xmlns:xlink="http://www.w3.org/1999/xlink">
<defs/>
<g id="Layer-1-copy" vectornator:layerName="Layer 1 copy">
<g opacity="1" vectornator:layerName="Group 1">
<path d="M653.323 142.613C647.544 144 640.882 147.284 631.866 152.138C622.851 156.993 613.604 162.31 604.126 168.089C594.648 173.868 584.361 180.688 573.264 188.548C562.168 196.408 556.158 200.337 555.233 200.337C554.309 200.337 549.107 197.101 539.629 190.628C530.151 184.155 516.397 175.602 498.365 164.968C480.334 154.335 468.911 147.841 462.9 146.454C456.89 145.067 449.367 144.078 444.05 144.309C438.733 144.541 432.439 144.424 429.202 145.348C427.557 145.818 422.088 146.82 420.697 148.582C419.35 150.288 425.325 154.344 425.893 154.912C427.049 156.068 438.723 163.581 460.916 177.452C483.108 191.322 499.521 201.84 510.155 209.006C520.789 216.173 526.221 220.102 526.453 220.796C526.684 221.489 515.356 230.852 492.47 248.883C469.585 266.914 445.659 286.911 420.692 308.872C395.726 330.833 375.152 349.442 358.97 364.699C342.788 379.957 325.45 396.832 306.956 415.326C288.463 433.819 274.015 448.845 263.612 460.404C256.376 468.444 247.19 476.946 247.19 476.946C247.19 476.946 243.586 475.531 242.46 474.968C238.761 473.118 235.178 472.194 231.71 472.194C230.378 472.194 227.48 472.294 226.476 473.106C224.866 474.407 225.531 476.807 225.816 478.088C226.278 480.169 227.896 482.827 230.67 486.064C233.444 489.3 234.831 491.265 234.831 491.959C234.831 492.652 226.278 502.824 209.171 522.473C200.618 532.298 191.4 541.545 182.847 551.37C178.57 547.208 130.648 497.383 129.261 496.689C128.701 496.409 123.358 491 113.025 500.351C101.809 510.501 110.374 517.563 110.907 518.429C112.757 521.435 163.224 574.306 163.224 574.306C163.224 574.306 114.293 628.445 106.343 636.621C102.663 640.406 106.929 650.707 112.219 654.746C119.604 660.384 124.274 662.092 129.193 657.238C135.992 650.531 184.68 596.547 184.68 596.547L243.795 655.932C243.795 655.932 239.929 660.274 238.992 661.522C236.218 665.221 234.716 667.879 234.484 669.497C234.253 671.116 234.424 672.436 235.178 673.312C239.535 678.369 252.073 670.396 252.073 670.396C252.073 670.396 262.225 679.9 279.563 697.238C296.9 714.576 318.63 734.572 344.753 757.227C370.875 779.881 395.032 799.993 417.225 817.562C439.417 835.131 465.886 855.012 496.632 877.204C512.004 888.3 527.377 899.396 542.75 910.492C534.081 916.272 525.412 922.051 516.743 927.83C499.406 939.389 482.877 949.445 467.157 957.998C451.438 966.551 443.116 971.29 442.191 972.215C441.266 973.14 440.804 974.18 440.804 975.336C440.804 976.492 441.96 977.879 444.271 979.497C446.583 981.115 451.669 982.155 459.529 982.618C467.389 983.08 472.61 982.106 479.082 980.719C485.555 979.332 495.618 975.775 505.789 970.458C515.961 965.141 529.6 956.333 546.706 945.468C555.469 939.903 571.507 929.487 571.507 929.487C571.507 929.487 584.973 938.56 590.949 942.394C603.201 950.254 610.825 954.683 610.825 954.683C610.825 954.683 608.728 956.999 605.257 958.664C602.899 959.795 600.097 965.001 603.268 970.16C605.071 973.093 609.665 975.294 614.565 975.986C619.541 976.688 624.812 975.857 625.278 975.682C624.931 977.879 624.927 978.301 624.58 980.497C623.886 984.889 625.236 986.909 625.985 987.982C626.514 988.74 628.916 989.616 630.282 988.807C630.503 990.394 635.069 993.823 642.874 992.526C645.044 992.166 645.757 991.027 646.469 989.696C646.771 989.131 646.836 988.429 647.398 987.902C648.16 987.187 650.901 987.647 652.161 986.438C654.404 984.284 655.404 980.702 655.404 980.702C655.404 980.702 662.15 983.712 665.501 984.698C673.361 987.01 679.978 987.947 684.143 988.108C689.572 988.318 691.817 987.625 695.053 986.701C698.289 985.776 700.598 984.607 701.523 983.683C702.448 982.758 703.078 981.007 702.616 979.389C702.153 977.771 697.981 975.22 692.202 971.521C686.422 967.823 682.839 965.656 682.839 965.656C682.839 965.656 682.207 960.79 681.118 958.958C680.055 957.17 679.443 955.741 677.804 955.254C676.813 954.96 674.586 954.256 671.709 954.399C669.725 954.497 669.848 954.502 667.557 954.876C669.623 954.284 669.722 954.061 670.797 953.546C673.228 952.38 675.7 950.249 677.78 947.706C679.861 945.163 680.297 937.942 680.297 937.942C680.297 937.942 680.547 929.873 680.316 928.024C680.085 926.174 678.277 922.9 674.83 922.877C671.379 922.854 668.616 923.727 667.16 924.637C665.311 925.793 662.959 926.563 660.417 927.025C657.874 927.488 655.446 927.946 653.365 929.564C652.325 930.373 650.436 933.423 649.396 934.232C649.859 930.536 648.316 925.708 647.622 924.552C647.196 923.842 644.24 919.45 641.464 917.936C639.723 916.986 638.735 917.921 638.24 918.134C637.673 916.967 637.141 916.243 636.436 915.528C635.428 914.504 633.921 913.908 632.73 914.037C628.356 914.511 625.235 918.821 624.691 920.592C624.056 922.656 624.217 923.27 624.266 925.415C623.441 925.121 622.89 925.102 621.844 925.491C620.799 925.88 619.731 926.664 619.731 926.664C619.731 926.664 612.115 921.909 608.98 919.855C602.276 915.463 598.924 913.035 598.924 912.573C598.924 912.371 600.828 910.84 604.637 907.981C609.529 904.307 617.566 898.44 628.745 890.381C648.626 876.048 673.477 856.861 703.298 832.819C733.119 808.778 761.437 784.851 788.253 761.041C815.069 737.23 837.954 715.731 856.91 696.544C871.292 681.987 886.16 668.084 886.16 668.084C886.16 668.084 890.291 669.8 891.239 670.191C895.169 671.809 898.29 672.503 900.602 672.271C902.913 672.04 904.416 671.462 905.109 670.538C905.803 669.613 906.034 668.457 905.803 667.07C905.572 665.683 905.076 663.959 902.464 660.253C901.785 659.29 896.962 654.172 896.962 654.172C896.962 654.172 935.813 611.461 943.788 602.793C952.342 611.577 993.176 655.929 998.223 660.596C1001.85 663.954 1009.69 660.596 1015.81 654.947C1025.4 646.108 1021.4 639.396 1019.47 636.96C1017.33 634.249 966.649 580.097 966.649 580.097C966.649 580.097 971.108 575.18 977.581 568.938C984.054 562.697 988.1 558.305 989.718 555.762C991.336 553.219 1025.57 517.596 1026.5 516.358C1029.63 512.22 1031.26 504.715 1022.86 497.234C1014.31 489.621 1010.02 492.104 1007.39 492.82C1005.32 493.386 983.09 517.353 975.63 525.358C975.019 526.013 974.507 526.561 974.114 526.981C973.651 526.519 973.189 526.056 972.727 525.594C971.802 524.669 971.224 522.82 970.993 520.046C970.762 517.272 969.837 515.307 968.219 514.151C966.601 512.995 964.6 512.884 963.412 512.891C959.348 512.915 955.598 516.077 955.598 516.077C955.598 516.077 948.303 515.021 945.39 517.255C943.634 518.601 942.79 519.815 942.559 520.739C942.443 521.202 942.328 521.664 942.212 522.126C939.091 520.624 935.971 519.121 932.85 517.619C926.608 514.613 922.332 513.111 920.02 513.111C919.025 513.111 917.131 513.193 915.443 513.934C913.207 514.915 911.235 516.623 911.235 516.623L889.89 492.847C889.89 492.847 893.297 488.904 894.013 487.798C896.556 483.868 897.828 480.747 897.828 478.435C897.828 477.881 898.091 475.729 897.115 474.597C896.112 473.433 893.861 473.294 893.32 473.234C891.239 473.003 887.887 473.696 883.264 475.314C882.562 475.56 876.747 478.172 876.747 478.172C876.747 478.172 865.479 465.535 851.362 449.655C834.718 430.93 814.375 410.124 790.333 387.239C766.292 364.353 740.401 341.351 712.66 318.234C684.92 295.117 661.687 276.508 642.962 262.407C624.238 248.305 609.905 237.903 599.965 231.199C594.994 227.847 590.024 224.495 585.054 221.143C589.562 217.675 594.07 214.208 598.578 210.74C607.593 203.805 623.428 192.94 646.083 178.145C668.738 163.35 681.568 154.681 684.573 152.138C687.578 149.596 688.884 148.943 689.961 146.057C690.847 143.682 679.487 141.851 672.783 141.389C666.079 140.927 659.102 141.226 653.323 142.613ZM672.437 144.163C679.372 144.625 684.192 145.508 684.886 146.432C685.579 147.357 684.573 147.977 683.879 148.671C683.186 149.364 674.401 154.912 657.526 165.315C640.651 175.718 621.81 188.432 601.005 203.458C587.685 213.078 569.045 226.085 569.045 226.085C569.045 226.085 563.207 225.106 558.673 224.728C551.287 224.112 545.755 225.073 542.057 225.997C538.358 226.922 536.162 227.847 535.468 228.771C535.121 229.234 534.793 230.076 536.028 231.037C537.135 231.899 537.895 232.47 538.589 232.932C536.046 233.164 533.503 233.395 530.96 233.626C525.875 234.088 519.98 236.4 513.276 240.561C506.572 244.722 502.642 247.496 501.486 248.883C500.33 250.27 499.984 251.773 500.446 253.391C500.908 255.009 502.873 256.049 506.341 256.512C509.808 256.974 512.698 256.859 515.01 256.165C516.165 255.818 517.321 255.472 518.477 255.125C517.321 256.281 516.165 257.436 515.01 258.592C512.698 260.904 511.542 262.638 511.542 263.794C511.542 264.949 505.763 269.688 494.204 278.011C482.646 286.333 472.821 293.961 464.73 300.896C456.639 307.832 450.513 313.495 446.352 317.887C444.271 320.084 442.191 322.28 440.11 324.476C441.151 323.898 442.191 323.32 443.231 322.742C445.312 321.586 454.905 313.842 472.012 299.509C489.119 285.177 499.984 276.508 504.607 273.503C509.23 270.498 511.773 269.226 512.236 269.688C512.467 269.92 512.698 270.151 512.929 270.382C502.873 278.589 492.817 286.795 482.761 295.002C462.65 311.415 441.035 329.908 417.918 350.482C394.801 371.057 371.8 392.555 348.914 414.979C326.028 437.402 309.037 454.856 297.941 467.339C286.845 479.822 280.603 485.486 279.216 484.33C277.829 483.174 277.829 481.556 279.216 479.475C280.603 477.395 292.046 465.259 313.545 443.066C335.044 420.874 350.763 405.154 360.703 395.907C365.674 391.284 370.644 386.661 375.614 382.037C375.383 381.806 375.152 381.575 374.92 381.344C374.458 380.881 373.88 380.881 373.187 381.344C372.493 381.806 368.563 385.274 361.397 391.746C354.231 398.219 342.441 409.662 326.028 426.075C309.615 442.488 297.363 455.318 289.272 464.565C281.181 473.812 276.326 478.551 274.708 478.782C273.899 478.898 273.09 479.013 272.281 479.129C272.628 479.822 272.974 480.516 273.321 481.209C274.015 482.596 275.055 483.752 276.442 484.677C277.829 485.601 278.638 486.526 278.869 487.451C279.1 488.376 277.251 491.381 273.321 496.466C269.391 501.552 265.346 502.824 261.185 500.281C257.024 497.738 253.094 494.733 249.395 491.265C245.696 487.798 246.043 483.521 250.435 478.435C254.827 473.349 258.179 471.153 260.491 471.847C261.647 472.194 262.803 472.54 263.959 472.887C263.381 472.309 262.803 471.731 262.225 471.153C261.069 469.998 260.491 469.073 260.491 468.379C260.491 467.686 277.367 450.579 311.117 417.06C344.868 383.54 370.875 358.458 389.137 341.814C407.4 325.169 426.703 308.178 447.046 290.841C467.389 273.503 484.38 259.401 498.019 248.536C511.658 237.671 520.327 230.852 524.025 228.078C526.305 226.368 534.955 219.958 545.424 212.422C551.937 207.734 559.156 202.609 565.983 197.91C583.783 185.658 600.427 174.909 615.915 165.662C631.404 156.415 641.113 150.867 645.043 149.018C648.973 147.168 652.641 146.281 656.34 145.356C660.038 144.432 665.501 143.701 672.437 144.163ZM458.054 148.811C465.362 150.069 466.521 151.571 469.526 152.727C472.531 153.883 481.605 158.264 502.18 171.21C522.754 184.155 536.046 192.824 542.057 197.217C545.062 199.413 548.067 201.609 551.072 203.805C547.836 206.232 544.599 208.66 541.363 211.087C534.89 215.941 530.649 218.728 530.649 218.728C530.649 218.728 522.638 213.399 510.155 204.845C497.672 196.292 481.259 185.774 460.916 173.29C446.87 164.672 431.465 155.51 431.465 155.51C431.465 155.51 423.888 150.594 425.612 149.278C427.323 147.972 436.471 147.485 439.35 147.139C445.129 146.446 453.946 148.105 458.054 148.811ZM581.493 223.324C581.493 223.324 587.019 227.269 596.497 233.973C605.975 240.677 619.499 250.617 637.067 263.794C654.636 276.97 678.678 296.273 709.193 321.702C739.707 347.131 767.679 372.097 793.107 396.601C818.536 421.105 836.452 439.136 846.854 450.695C857.257 462.253 863.087 468.891 863.087 468.891C863.087 468.891 862.092 470.015 860.678 471.273C859.408 472.403 857.716 473.657 857.498 474.04C857.778 473.872 859.141 473.377 860.678 472.379C862.304 471.323 864.1 469.766 864.1 469.766C864.1 469.766 867.365 473.616 871.757 478.702C876.15 483.788 878.343 485.67 878.343 486.595C878.343 487.519 875.751 491.612 870.434 495.773C865.117 499.934 861.303 502.477 858.991 503.402C856.679 504.326 853.443 502.246 849.282 497.16C845.121 492.074 842.309 488.485 842.309 488.485C842.309 488.485 845.367 486.319 848.101 483.551C851 480.615 853.604 477.047 854.318 476.333C853.624 476.448 848.618 480.563 848.618 480.563C848.618 480.563 842.925 473.581 832.984 462.484C823.044 451.388 812.526 440.408 801.43 429.543C790.333 418.678 780.855 409.778 772.996 402.843C765.136 395.907 753.129 386.963 752.898 387.194C757.174 391.008 764.303 398.083 768.58 401.897C777.133 409.526 791.489 424.341 813.219 446.534C834.949 468.726 846.822 481.735 846.822 481.735L840.742 486.595C840.742 486.595 832.751 477.523 825.009 468.726C814.837 457.168 797.384 439.367 772.649 415.326C747.914 391.284 722.716 368.283 697.056 346.321C671.396 324.36 648.395 305.635 628.052 290.147C607.709 274.659 597.537 266.683 597.537 266.221C597.537 265.759 599.04 265.065 602.045 264.14C605.05 263.216 607.015 262.291 607.94 261.366C608.865 260.442 609.558 258.477 610.021 255.472C610.483 252.466 609.789 249.808 607.94 247.496C606.091 245.184 602.623 242.988 597.537 240.908C592.452 238.827 588.984 237.093 587.135 235.706C585.285 234.319 582.974 233.626 580.2 233.626C577.426 233.626 575.461 232.932 574.305 231.545C573.727 230.852 573.149 230.158 572.571 229.465C573.842 228.54 575.114 227.616 576.385 226.691C578.928 224.841 581.493 223.324 581.493 223.324ZM556.967 226.344C560.435 226.575 563.324 227.153 565.636 228.078C567.948 229.003 571.068 231.199 574.998 234.666C578.928 238.134 580.893 240.214 580.893 240.908C580.893 241.022 580.713 241.914 579.577 241.915C577.269 241.917 572.814 240.871 570.49 240.561C563.555 239.636 558.47 238.249 555.233 236.4C551.997 234.551 548.183 233.164 543.79 232.239C539.398 231.314 537.202 230.505 537.202 229.812C537.202 229.118 539.629 228.309 544.484 227.384C549.338 226.46 553.499 226.113 556.967 226.344ZM547.258 234.666C549.801 235.36 551.188 236.053 551.419 236.747C551.65 237.44 551.367 237.656 548.885 238.796C547.09 239.62 546.462 240.112 543.79 242.295C543.169 242.803 541.694 243.591 540.548 245.304C540.282 245.7 539.159 248.396 540.996 248.613C542.714 248.815 543.879 246.739 544.459 244.315C544.623 243.63 545.051 242.972 545.642 242.359C547.964 239.949 552.793 238.23 553.899 238.23C555.286 238.23 557.416 239.362 557.416 239.362C557.416 239.362 554.54 240.792 553.499 241.255C551.419 242.179 549.338 243.566 547.258 245.416C545.177 247.265 542.533 249.734 540.452 252.971C538.371 256.207 537.984 258.365 537.895 259.286C537.802 260.255 537.547 263.81 539.681 263.286C541.546 262.827 540.705 260.235 539.976 258.939C538.853 256.94 543.704 250.516 546.709 247.51C549.714 244.505 552.112 243.219 552.806 242.988C553.153 242.873 553.499 242.757 553.846 242.642C553.384 243.682 552.922 244.722 552.459 245.762C551.534 247.843 551.133 250.273 551.826 250.967C552.173 251.314 553.351 251.547 553.964 249.072C554.122 248.433 553.901 246.736 554.104 246.043C554.783 243.728 556.246 241.966 557.314 241.255C558.007 240.792 558.701 240.33 559.394 239.868C558.816 241.139 558.238 242.41 557.661 243.682C556.505 246.225 555.498 249.949 555.267 252.26C555.151 253.416 555.245 255.604 556.723 255.728C557.864 255.825 558.107 253.765 557.992 252.725C557.761 250.644 557.712 246.68 558.637 244.6C559.561 242.519 560.435 241.832 561.128 241.601C561.475 241.486 561.822 241.37 562.168 241.255C562.399 243.219 563.026 244.724 563.257 246.689C563.72 250.618 563.57 255.01 562.363 257.602C561.171 260.161 561.349 261.59 561.812 261.821C561.901 261.866 562.46 262.458 563.502 261.695C564.545 260.933 565.417 260.363 564.794 257.502C564.186 254.708 564.942 252.235 564.942 249.23C564.942 247.727 564.942 246.225 564.942 244.722C565.636 245.762 566.329 246.803 567.023 247.843C568.41 249.923 568.834 251.036 568.603 251.96C568.488 252.423 568.177 252.674 568.143 254.091C568.349 257.252 569.516 257.239 569.978 257.239C570.441 257.239 571.212 256.566 571.311 253.631C571.024 251.298 570.191 250.659 569.45 249.23C567.59 245.64 566.959 244.442 565.47 242.793C564.922 242.186 564.827 241.832 564.249 241.255C567.023 241.717 569.797 242.179 572.571 242.642C578.119 243.566 581.477 243.77 583.252 242.869C585.14 241.91 582.165 239.058 580.546 237.44C579.737 236.631 578.928 235.822 578.119 235.013C579.044 235.129 579.968 235.244 580.893 235.36C582.742 235.591 585.285 236.747 588.522 238.827C591.758 240.908 595.11 242.526 598.578 243.682C602.045 244.838 604.472 246.225 605.859 247.843C607.247 249.461 607.94 251.31 607.94 253.391C607.94 255.472 607.478 257.205 606.553 258.592C605.628 259.979 604.126 260.673 602.045 260.673C599.965 260.673 597.422 259.864 594.417 258.246C592.914 257.436 590.283 255.735 588.781 254.926C588.896 255.273 591.989 258.592 594.763 259.979C596.15 260.673 597.537 261.366 598.924 262.06C598.346 262.407 597.769 262.753 597.191 263.1C596.035 263.794 594.763 264.14 593.376 264.14C591.989 264.14 590.371 263.794 588.522 263.1C586.672 262.407 585.054 261.02 583.667 258.939C582.28 256.859 580.315 254.778 577.772 252.697C576.501 251.657 575.229 250.617 573.958 249.577C575.229 251.31 576.501 253.044 577.772 254.778C580.315 258.246 582.049 261.135 582.974 263.447C583.898 265.759 584.129 267.955 583.667 270.035C583.205 272.116 582.511 273.734 581.587 274.89C580.662 276.046 579.044 276.855 576.732 277.317C574.42 277.779 572.455 277.779 570.837 277.317C569.219 276.855 568.063 275.468 567.37 273.156C566.676 270.844 565.275 267.138 565.044 267.138C565.044 268.294 564.942 272 564.942 273.156C564.942 275.468 563.44 276.739 560.435 276.97C557.429 277.202 555.233 276.97 553.846 276.277C552.459 275.583 551.188 274.543 550.032 273.156C548.876 271.769 548.298 270.613 548.298 269.688C548.298 268.764 548.876 267.492 550.032 265.874C551.188 264.256 551.766 262.291 551.766 259.979C551.766 258.823 551.97 255.804 551.97 254.648C551.739 254.648 550.263 257.436 550.032 259.286C549.801 261.135 548.76 263.331 546.911 265.874C545.062 268.417 542.519 270.729 539.282 272.809C536.046 274.89 532.925 276.161 529.92 276.624C526.915 277.086 524.834 276.855 523.678 275.93C522.523 275.005 521.945 274.196 521.945 273.503C521.945 272.809 523.216 270.613 525.759 266.914C527.03 265.065 528.302 263.216 529.573 261.366C528.88 261.829 524.958 265.311 523.098 267.929C521.385 270.341 521.392 270.702 520.558 272.463C519.402 271.538 518.246 270.613 517.09 269.688C514.778 267.839 513.623 266.337 513.623 265.181C513.623 264.025 515.472 261.598 519.171 257.899C522.869 254.2 527.03 251.079 531.654 248.536C536.277 245.994 539.745 243.682 542.057 241.601C543.212 240.561 544.368 239.521 545.524 238.481C541.594 240.677 537.664 242.873 533.734 245.069C525.875 249.461 520.558 252.12 517.784 253.044C515.01 253.969 512.004 254.547 508.768 254.778C505.532 255.009 503.567 254.894 502.873 254.431C502.482 254.171 501.854 253.641 501.782 253.038C501.726 252.572 502.188 252.003 502.188 251.852C503.806 251.852 507.409 252.635 510.14 252.194C512.871 251.753 513.316 251.268 514.269 250.95C516.349 250.257 518.362 248.421 518.477 248.19C518.13 248.19 509.808 250.27 507.728 250.27C505.647 250.27 504.491 250.039 504.26 249.577C504.029 249.114 504.491 248.421 505.647 247.496C506.803 246.571 508.768 245.531 511.542 244.375C514.316 243.219 517.899 242.526 522.291 242.295C526.684 242.064 529.222 241.701 531.996 240.314C534.77 238.927 538.756 236.058 538.756 235.827C538.409 235.827 534.398 237.697 531.541 238.905C528.034 240.386 525.181 240.677 521.945 240.908C520.327 241.023 517.001 241.258 515.382 241.374C516.423 240.565 517.959 239.502 520.773 238.246C523.18 237.171 526.684 235.938 533.388 235.013C540.092 234.088 544.715 233.973 547.258 234.666ZM585.748 271.769C585.863 273.734 585.979 275.699 586.094 277.664C586.326 281.594 585.401 284.483 583.32 286.333C581.24 288.182 579.853 290.494 579.159 293.268C578.466 296.042 575.114 298.816 569.103 301.59C563.093 304.364 557.083 308.756 551.072 314.767C545.062 320.777 543.285 321.626 540.338 324.46C540.338 324.46 536.546 328.551 535.399 325.338C535.003 324.228 535.468 320.777 536.162 318.928C536.855 317.078 536.508 314.536 535.121 311.299C533.734 308.063 534.659 304.48 537.895 300.55C541.132 296.62 543.097 292.112 543.79 287.026C544.484 281.941 545.408 278.935 546.564 278.011C547.72 277.086 548.76 276.624 549.685 276.624C550.61 276.624 551.415 277.738 553.496 278.894C554.478 279.439 559.729 280.115 562.21 279.494C563.287 279.224 566.191 277.524 566.191 277.524C566.191 277.524 570.279 279.824 572.714 280.149C576.181 280.611 579.811 279.876 581.66 278.489C583.509 277.102 584.592 275.237 585.054 273.85C585.285 273.156 585.517 272.463 585.748 271.769ZM518.824 275.583C520.442 277.202 522.06 278.357 523.678 279.051C525.297 279.744 526.106 281.131 526.106 283.212C526.106 285.292 525.181 287.142 523.332 288.76C521.482 290.378 520.673 292.921 520.904 296.389C521.136 299.856 520.211 303.902 518.13 308.525C516.05 313.148 515.01 317.541 515.01 321.702C515.01 325.863 516.512 332.798 519.517 342.507C522.523 352.216 524.372 359.151 525.065 363.312C525.759 367.474 524.025 370.248 519.864 371.635C515.703 373.022 513.16 374.293 512.236 375.449C511.311 376.605 510.039 379.148 508.421 383.077C506.803 387.007 504.838 390.128 502.526 392.44C500.215 394.752 498.365 397.063 496.978 399.375C495.591 401.687 494.089 406.31 492.47 413.245C490.852 420.18 489.465 425.035 488.309 427.809C487.154 430.583 486.113 432.317 485.189 433.01C484.264 433.704 482.993 434.051 481.374 434.051C479.756 434.051 478.138 433.588 476.52 432.664C474.902 431.739 472.59 429.658 469.585 426.422C466.579 423.186 463.805 419.487 461.263 415.326C458.72 411.165 456.524 406.079 454.674 400.069C452.825 394.058 450.975 390.128 449.126 388.279C447.277 386.429 445.081 384.811 442.538 383.424C439.995 382.037 438.377 379.957 437.683 377.183C436.99 374.409 437.221 371.866 438.377 369.554C439.533 367.242 441.729 364.468 444.965 361.232C448.201 357.996 450.86 354.875 452.94 351.87C455.021 348.864 456.408 343.547 457.101 335.919C457.795 328.29 458.604 323.551 459.529 321.702C460.453 319.852 470.163 311.299 488.656 296.042C507.15 280.785 517.206 273.965 518.824 275.583ZM614.875 273.85C614.875 274.312 620.539 278.589 631.866 286.679C643.193 294.77 654.752 303.786 666.542 313.726C672.437 318.697 678.331 323.667 684.226 328.637C682.377 326.556 680.527 324.476 678.678 322.395C674.979 318.234 670.125 313.611 664.114 308.525C658.104 303.439 650.475 297.429 641.229 290.494C631.982 283.559 625.278 278.935 621.117 276.624C619.036 275.468 616.956 274.312 614.875 273.156C614.875 273.387 614.875 273.618 614.875 273.85ZM611.754 285.639C614.297 285.639 616.147 285.986 617.302 286.679C618.458 287.373 622.851 290.725 630.479 296.735C638.108 302.746 642.5 306.791 643.656 308.872C644.812 310.952 645.621 312.686 646.083 314.073C646.545 315.46 646.661 317.078 646.43 318.928C646.199 320.777 644.927 323.667 642.616 327.597C640.304 331.527 639.032 334.994 638.801 337.999C638.57 341.005 639.148 344.01 640.535 347.015C641.922 350.02 644.581 353.719 648.51 358.111C652.44 362.503 654.174 369.207 653.712 378.223C653.249 387.239 654.752 394.752 658.22 400.762C661.687 406.772 663.883 411.28 664.808 414.285C665.733 417.291 666.079 419.834 665.848 421.914C665.617 423.995 664.692 426.075 663.074 428.156C661.456 430.236 657.064 432.664 649.897 435.438C642.731 438.212 637.183 440.754 633.253 443.066C629.323 445.378 626.78 446.534 625.625 446.534C624.469 446.534 622.966 445.84 621.117 444.453C619.267 443.066 616.84 439.599 613.835 434.051C610.83 428.502 607.824 423.995 604.819 420.527C601.814 417.06 597.075 414.401 590.602 412.552C584.129 410.702 578.928 407.466 574.998 402.843C571.068 398.219 566.676 394.867 561.822 392.787C556.967 390.706 553.499 388.279 551.419 385.505C549.338 382.731 547.951 379.726 547.258 376.489C546.564 373.253 546.333 369.092 546.564 364.006C546.796 358.92 547.836 352.447 549.685 344.588C551.534 336.728 553.037 332.451 554.193 331.758C555.349 331.064 557.892 330.371 561.822 329.677C565.751 328.984 568.757 328.059 570.837 326.903C572.918 325.747 574.883 324.245 576.732 322.395C578.581 320.546 579.968 318.581 580.893 316.5C581.818 314.42 583.089 312.455 584.707 310.606C586.326 308.756 588.984 307.254 592.683 306.098C596.382 304.942 598.924 303.671 600.311 302.283C601.698 300.896 602.739 298.585 603.432 295.348C604.126 292.112 605.05 289.685 606.206 288.067C607.362 286.448 609.211 285.639 611.754 285.639ZM662.727 334.532C666.426 335.688 669.662 336.15 672.437 335.919C675.211 335.688 677.176 335.803 678.331 336.266C679.487 336.728 687.925 343.779 703.645 357.418C719.364 371.057 734.159 384.349 748.029 397.294C761.899 410.24 767.91 419.14 766.06 423.995C764.211 428.849 763.286 432.779 763.286 435.784C763.286 438.79 763.864 442.026 765.02 445.493C766.176 448.961 766.754 451.966 766.754 454.509C766.754 457.052 766.407 458.901 765.714 460.057C765.02 461.213 763.749 462.253 761.899 463.178C760.05 464.103 758.085 464.218 756.005 463.525C753.924 462.831 749.763 459.364 743.521 453.122C737.28 446.88 729.536 441.564 720.289 437.171C711.042 432.779 705.147 429.427 702.604 427.115C700.061 424.804 697.75 421.452 695.669 417.06C693.589 412.667 691.97 405.732 690.815 396.254C689.659 386.776 687.347 380.188 683.879 376.489C680.412 372.79 677.522 367.705 675.211 361.232C672.899 354.759 669.662 349.558 665.501 345.628C661.34 341.698 658.913 338.577 658.22 336.266C658.049 335.696 658.692 335.126 659.609 334.764C660.554 334.392 661.789 334.239 662.727 334.532ZM435.949 340.427C435.834 341.236 435.718 342.045 435.603 342.854C435.371 344.472 433.175 347.593 429.014 352.216C424.853 356.84 421.848 361.116 419.999 365.046C418.149 368.976 417.225 372.79 417.225 376.489C417.225 380.188 418.38 385.852 420.692 393.48C423.004 401.109 424.506 407.235 425.2 411.858C425.893 416.482 426.009 420.411 425.547 423.648C425.084 426.884 424.16 430.005 422.773 433.01C421.386 436.015 419.278 439.887 415.491 443.76C411.314 448.032 402.038 447.375 381.206 470.9C366.19 487.857 362.322 519.352 362.09 524.9C361.859 530.449 361.513 533.454 361.05 533.916C360.588 534.378 358.392 534.378 354.462 533.916C350.532 533.454 347.527 533.454 345.446 533.916C343.366 534.378 340.938 535.419 338.164 537.037C335.39 538.655 332.616 540.851 329.842 543.625C327.068 546.399 324.872 547.902 323.254 548.133C321.636 548.364 320.364 547.555 319.44 545.706C318.515 543.856 317.937 541.545 317.706 538.771C317.475 535.997 316.781 533.107 315.625 530.102C314.469 527.097 313.198 525.132 311.811 524.207C310.424 523.282 307.881 522.82 304.182 522.82C300.484 522.82 297.132 521.664 294.126 519.352C291.121 517.041 288.578 515.538 286.498 514.845C284.417 514.151 283.03 512.764 282.337 510.683C281.643 508.603 280.256 506.06 278.176 503.055C277.619 502.251 275.734 499.803 275.734 499.803C275.734 499.803 285.167 487.193 294.82 476.355C307.997 461.56 321.52 447.227 335.39 433.357C349.261 419.487 369.488 400.531 396.072 376.489C409.365 364.468 422.657 352.447 435.949 340.427ZM528.186 394.867C530.036 395.098 532.579 396.832 535.815 400.069C539.051 403.305 542.634 405.039 546.564 405.27C550.494 405.501 552.806 406.079 553.499 407.004C554.193 407.928 554.771 410.009 555.233 413.245C555.696 416.482 556.273 418.678 556.967 419.834C557.661 420.989 559.279 422.145 561.822 423.301C564.364 424.457 567.485 425.382 571.184 426.075C574.883 426.769 577.657 427.809 579.506 429.196C581.355 430.583 583.783 433.126 586.788 436.825C589.793 440.523 592.452 445.031 594.763 450.348C597.075 455.665 597.653 462.831 596.497 471.847C595.341 480.863 593.607 489.763 591.296 498.547C588.984 507.331 587.135 513.573 585.748 517.272C584.361 520.971 580.893 528.021 575.345 538.424C569.797 548.827 566.018 553.437 565.873 560.233C565.765 565.28 569.05 569.25 570.195 570.743C572.066 573.183 573.496 574.718 580.893 581.422C584.644 584.82 594.327 591.628 594.763 599.8C595.319 610.197 584.361 618.987 577.426 625.459C570.49 631.932 567.195 632.854 566.676 636.902C566.526 638.072 567.023 639.33 568.41 640.717C569.797 642.104 572.34 643.838 576.039 645.918C579.737 647.999 582.742 650.195 585.054 652.506C587.366 654.818 589.678 657.939 591.989 661.869C594.301 665.799 595.919 669.382 596.844 672.618C597.769 675.855 598 681.518 597.537 689.609C597.075 697.7 594.994 707.641 591.296 719.43C587.597 731.22 585.863 738.617 586.094 741.623C586.326 744.628 587.135 746.708 588.522 747.864C589.909 749.02 590.718 750.06 590.949 750.985C591.18 751.91 591.18 754.684 590.949 759.307C590.718 763.93 589.793 767.86 588.175 771.097C586.557 774.333 584.014 776.992 580.546 779.072C577.079 781.153 574.536 782.077 572.918 781.846C571.3 781.615 569.681 780.459 568.063 778.379C566.445 776.298 564.48 772.946 562.168 768.323C559.857 763.699 558.585 760.579 558.354 758.96C558.238 758.151 558.123 757.342 558.007 756.533C558.816 756.417 559.625 756.302 560.435 756.186C562.053 755.955 563.555 755.262 564.942 754.106C566.329 752.95 568.294 748.673 570.837 741.276C573.38 733.878 575.229 726.943 576.385 720.47C577.541 713.998 581.279 689.995 577.426 673.658C576.602 670.166 575.229 667.07 573.611 664.296C571.993 661.522 569.913 658.979 567.37 656.667C564.827 654.356 562.168 652.391 559.394 650.773C556.62 649.154 548.979 646.008 549.265 640.864C549.534 636.04 562.746 622.223 565.289 618.524C567.832 614.826 573.249 609.726 572.918 602.227C572.567 594.306 563.787 586.276 557.314 581.422C550.841 576.567 546.449 572.753 544.137 569.979C541.825 567.205 540.901 564.199 541.363 560.963C541.825 557.727 543.675 552.179 546.911 544.319C550.147 536.459 552.877 531.109 553.34 523.942C553.802 516.776 552.69 509.181 551.766 505.482C550.841 501.783 549.107 497.391 546.564 492.305C544.021 487.22 540.901 482.25 537.202 477.395C533.503 472.54 528.88 467.339 523.332 461.791C517.784 456.243 515.241 451.504 515.703 447.574C516.165 443.644 515.934 440.523 515.01 438.212C514.085 435.9 514.085 434.282 515.01 433.357C515.934 432.432 516.975 430.583 518.13 427.809C519.286 425.035 519.402 420.296 518.477 413.592C517.552 406.888 517.321 402.843 517.784 401.456C518.246 400.069 519.633 398.566 521.945 396.948C524.256 395.33 526.337 394.636 528.186 394.867ZM688.387 442.373C694.398 442.835 700.061 443.875 705.378 445.493C710.695 447.112 716.128 449.539 721.676 452.775C727.224 456.012 732.656 460.288 737.973 465.605C743.29 470.922 747.914 476.933 751.844 483.637C755.773 490.34 758.779 496.813 760.859 503.055C762.94 509.296 764.442 515.422 765.367 521.433C766.292 527.443 766.523 534.032 766.06 541.198C765.598 548.364 764.442 554.721 762.593 560.269C760.744 565.818 757.738 572.406 753.577 580.035C749.416 587.663 733.697 611.243 724.45 623.032C715.203 634.822 706.419 644.878 698.096 653.2C689.774 661.522 681.452 669.266 673.13 676.433C664.808 683.599 653.943 692.152 640.535 702.092C627.127 712.033 601.607 736.372 594.164 738.908C595.921 731.822 601.428 713.786 602.901 705.831C604.834 695.394 606.154 688.024 605.603 678.239C604.893 665.602 596.039 653.35 592.229 649.114C586.849 643.133 576.816 638.495 576.732 636.556C576.674 635.206 577.601 634.743 580.81 632.083C585.772 627.969 588.175 625.922 591.643 622.685C595.11 619.449 597.884 615.75 599.965 611.589C602.045 607.428 603.085 603.614 603.085 600.146C603.085 596.679 602.161 593.211 600.311 589.744C598.462 586.276 594.648 582.231 588.868 577.607C583.089 572.984 579.506 569.401 578.119 566.858C576.732 564.315 576.039 561.657 576.039 558.882C576.039 556.108 579.044 549.636 585.054 539.464C591.065 529.293 596.497 516.578 601.352 501.321C606.206 486.064 609.451 478.455 616.262 471.153C623.31 463.598 626.202 462.253 630.826 459.017C635.449 455.781 641.229 452.66 648.164 449.655C655.099 446.649 662.034 444.569 668.969 443.413C675.904 442.257 682.377 441.91 688.387 442.373ZM465.077 450.348C474.786 451.042 483.917 452.66 492.47 455.203C497.33 456.647 509.951 463.765 519.417 472.339C526.613 478.857 531.291 486.83 533.388 490.225C538.242 498.085 540.897 504.154 542.057 508.256C546.66 524.534 542.695 530.512 541.112 535.855C539.027 542.896 529.81 555.033 531.264 564.676C532.379 572.068 534.978 574.093 539.918 578.507C548.304 586.001 556.51 592.036 561.592 598.071C565.519 602.735 561.706 607.081 560.781 609.162C559.857 611.243 556.736 615.75 551.419 622.685C546.102 629.621 538.967 638.252 539.354 643.129C539.946 650.609 547.489 655.743 552.806 659.442C558.123 663.14 562.053 667.532 564.596 672.618C567.138 677.704 568.41 684.061 568.41 691.69C568.41 699.318 567.948 706.485 567.023 713.189C566.098 719.893 564.596 726.828 562.515 733.994C560.435 741.16 559.048 745.09 558.354 745.784C557.661 746.477 555.811 746.015 552.806 744.397C549.801 742.778 458.373 665.336 447.739 654.934C437.105 644.531 429.014 636.209 423.466 629.967C417.918 623.726 412.486 617.022 407.169 609.856C401.852 602.689 396.188 593.096 390.178 581.075C384.167 569.054 380.122 558.998 378.041 550.907C375.961 542.816 374.805 535.188 374.574 528.021C374.342 520.855 375.036 513.804 376.654 506.869C378.272 499.934 380.237 494.27 382.549 489.878C384.861 485.486 388.328 480.747 392.952 475.661C397.575 470.575 401.736 466.761 405.435 464.218C409.134 461.675 414.104 459.133 420.345 456.59C426.587 454.047 433.175 452.197 440.11 451.042C447.046 449.886 455.368 449.655 465.077 450.348ZM799.002 450.001C801.545 450.464 810.214 459.017 825.009 475.661C839.804 492.305 847.958 501.554 847.958 501.554C847.958 501.554 846.314 503.159 844.634 505.105C843.244 506.714 841.83 508.597 841.306 509.643C840.151 511.955 839.688 514.267 839.919 516.578C840.151 518.89 841.538 520.277 844.08 520.739C846.623 521.202 850.553 520.393 855.87 518.312C857.342 517.736 863.374 514.559 863.374 514.559L924.146 580.951C924.146 580.951 883.033 624.882 881.183 625.113C879.334 625.344 876.444 625.113 872.514 624.419C868.584 623.726 864.308 622.108 859.684 619.565C855.061 617.022 851.362 614.017 848.588 610.549C845.814 607.081 843.271 602.574 840.96 597.026C838.648 591.477 836.452 586.97 834.371 583.502C832.291 580.035 829.286 576.451 825.356 572.753C821.426 569.054 816.802 565.702 811.485 562.697C806.169 559.692 801.892 555.646 798.655 550.56C795.419 545.475 792.298 541.776 789.293 539.464C786.288 537.152 783.976 534.956 782.358 532.876C780.74 530.795 779.468 528.484 778.544 525.941C777.619 523.398 776.463 518.081 775.076 509.99C773.689 501.899 772.996 496.351 772.996 493.346C772.996 490.34 773.342 487.798 774.036 485.717C774.729 483.637 776.694 480.053 779.931 474.968C783.167 469.882 785.363 465.721 786.519 462.484C787.675 459.248 789.409 456.243 791.72 453.469C794.032 450.695 796.459 449.539 799.002 450.001ZM232.057 473.927C234.369 474.159 237.143 474.968 240.379 476.355C243.616 477.742 245.118 478.898 244.887 479.822C244.818 480.099 244.412 481.001 243.603 481.135C243.059 481.226 241.766 480.516 241.766 480.516C241.766 480.516 238.204 478.702 237.685 479.412C236.39 481.183 240.581 485.501 242.113 487.451C244.656 490.687 248.008 494.039 252.169 497.507C256.33 500.974 260.26 503.748 263.959 505.829C267.657 507.909 271.379 510.039 272.796 509.073C273.735 508.433 271.99 505.904 271.934 505.829C270.585 504.02 270.911 504.307 270.911 504.307L273.257 502.027C273.257 502.027 275.209 503.996 276.095 505.135C277.713 507.216 278.869 509.412 279.563 511.724C280.256 514.035 279.909 515.422 278.522 515.885C277.135 516.347 275.517 516.347 273.668 515.885C271.818 515.422 268.698 514.035 264.305 511.724C259.913 509.412 255.521 506.638 251.129 503.402C249.84 502.452 248.521 501.403 247.172 500.254C243.925 497.488 240.505 494.145 236.912 490.225C231.826 484.677 228.936 480.978 228.243 479.129C227.549 477.279 227.434 475.892 227.896 474.968C228.358 474.043 229.746 473.696 232.057 473.927ZM892.626 475.314C893.119 475.369 894.858 475.227 895.419 475.966C896.042 476.786 895.461 478.52 895.4 479.129C895.169 481.44 892.626 485.486 887.772 491.265C882.917 497.044 877.831 501.899 872.514 505.829C867.197 509.759 862.805 512.648 859.338 514.498C855.87 516.347 852.98 517.619 850.669 518.312C848.357 519.006 846.277 519.121 844.427 518.659C842.578 518.197 841.884 516.809 842.347 514.498C842.809 512.186 843.965 509.874 845.814 507.563C847.664 505.251 849.49 503.665 849.721 503.665C849.721 504.135 849.058 505.212 848.641 506.344C848.34 507.164 848.248 508.099 848.248 508.439C848.248 508.879 848.849 510.978 851.887 510.817C852.393 510.79 854.754 510.315 857.642 508.899C862.029 506.747 867.956 502.897 872.994 498.877C878.391 494.571 883.496 489.579 885.963 486.295C886.676 485.346 888.692 482.373 888.356 481.011C888.255 480.601 887.329 479.461 885.594 479.477C882.222 479.508 876.959 481.069 876.91 480.97C878.759 480.161 882.108 478.204 883.957 477.395C887.656 475.777 890.546 475.083 892.626 475.314ZM1018.92 501.19L1021.45 508.8L1013.91 506.271C1013.91 506.271 1016.12 513.615 1016.35 513.962C1015.54 514.077 1008.59 511.952 1008.59 511.952C1008.59 511.952 1010.55 519.191 1010.78 519.769C1009.74 520 1003.11 518.167 1003.11 518.167L1005.06 525.977L997.246 524.195L1000.07 532.189L992.139 529.984L994.684 537.533L986.504 535.48C986.504 535.48 984.399 528.388 984.167 527.579C984.745 527.695 991.418 529.497 991.418 529.497C991.418 529.497 989.513 522.584 989.398 521.89C990.207 521.89 995.768 523.642 996.577 523.642C996.577 522.717 995.033 516.683 995.033 515.758C995.842 515.758 1002.31 517.494 1002.31 517.494C1002.31 517.494 1000.31 510.524 1000.2 509.715C1000.89 509.831 1008.18 511.496 1008.18 511.496C1008.18 511.496 1006.25 504.491 1006.25 503.682C1007.05 503.682 1012.83 505.897 1013.64 505.897C1013.64 504.972 1010.89 498.161 1010.89 498.161L1018.92 501.19ZM884.557 503.024L882.25 508.885L889.405 508.006L887.646 514.985L894.828 514.169L893.125 521.053L900.575 520.2L898.533 527.463L906.28 526.658C906.28 526.658 903.593 532.888 903.362 533.119C903.709 533.466 911.56 532.516 911.56 532.516C911.56 532.516 910.58 535.528 910.57 536.654C909.53 536.769 908.916 536.47 905.524 537.653C903.2 538.464 901.553 540.704 901.553 540.704L902.803 533.69L896.163 535.021L897.963 528.051L890.863 528.967L892.546 521.534L885.255 522.686L886.888 515.699L879.921 516.168L881.465 509.734L875.546 510.878L877.271 504.015L884.557 503.024ZM126.426 502.219C126.426 502.219 124.239 509.756 124.239 510.449C125.048 510.449 131.722 508.318 131.722 508.318L129.152 516.24L136.914 514.081L134.781 521.845L142.472 519.712L140.863 527.409L148.678 525.435L146.812 532.849L153.951 531.149L152.031 538.476L159.806 537.194L158.115 545.189L165.239 543.38L163.746 550.907L170.472 548.92L169.294 556.455L176.274 554.925L174.566 560.686L172.033 563.47L166.354 565.124L167.907 557.842L160.082 559.116L162.717 552.101L154.351 552.976L156.94 545.959L149.45 547.324L151.024 539.328L143.857 541.741L145.368 534.61L137.308 536.204L139.749 528.419L131.834 530.256L133.84 522.658L125.991 524.148L128.377 516.925L120.703 518.63L123.176 511.377L115.126 513.069L117.8 504.882L126.426 502.219ZM237.599 503.64L245.214 506.213L248.101 513.409L241.073 511.724L243.412 518.919L235.872 517.619L237.708 525.822L230.323 523.86L232.115 531.991L224.648 529.8L226.896 537.663L219.574 535.997L221.348 543.388L214.026 541.545L216.42 548.257L209.171 547.093L211.59 554.8L203.623 553.334L204.819 561.712L197.444 559.921L199.546 567.771C199.546 567.771 192.989 565.355 192.527 565.818C192.065 566.28 194.083 573.848 194.083 573.848L186.478 572.077L189.937 579.915L181.778 577.954L184.392 585.221L176.23 584.196L178.642 592.103C178.642 592.103 170.797 589.744 170.335 590.437C169.872 591.131 173.06 598.782 173.06 598.782L164.787 596.332L167.201 604.501L159.388 602.803L162.081 611.008L154.117 608.36L157.093 616.66L148.836 614.363L151.077 622.567L142.941 620.952L145.64 629.219L137.275 627.394L139.976 635.156L131.855 633.372L134.597 640.504L126.675 639.218L128.664 646.623L121.047 645.228L123.436 652.023L115.108 651L113.258 642.886L120.356 644.47L118.382 636.87L125.884 638.451L123.656 630.665L130.942 632.535L129.122 624.676L136.514 626.654L134.085 618.828L142.142 620.274L139.822 612.147L147.81 613.623L145.083 605.734L153.54 607.651L149.874 599.975L158.198 601.533L155.555 593.249L163.746 595.292L160.859 588.06C160.859 588.06 168.023 590.322 168.948 589.397C169.872 588.472 167.094 581.469 167.094 581.469L174.843 582.809L173.214 574.737L180.044 576.914L178.025 568.953L185.559 571.251L182.742 563.47L191.24 564.533L188.457 558.078L196.496 558.996L194.152 551.54L202.615 552.531L200.488 544.854L208.237 546.144L206.167 539.471L212.986 540.504L210.861 533.457L218.341 534.837L215.695 527.66L223.796 529.015L221.134 521.748L228.927 522.681L226.676 515.611L234.883 516.772L232.993 508.936L240.148 510.872L237.599 503.64ZM261.726 513.949C261.726 513.949 268.12 519.352 272.281 524.9C276.442 530.449 281.528 534.494 287.538 537.037C293.548 539.58 296.554 543.625 296.554 549.173C296.554 554.721 297.132 558.42 298.287 560.269C299.443 562.119 301.177 563.968 303.489 565.818C305.801 567.667 309.384 569.747 314.238 572.059C319.093 574.371 324.988 575.873 331.923 576.567C338.858 577.26 345.331 578.763 351.341 581.075C357.351 583.387 362.668 586.045 367.292 589.05C371.915 592.055 377.001 596.448 382.549 602.227C388.097 608.006 393.183 615.635 397.806 625.113C402.43 634.591 405.435 641.641 406.822 646.265C408.209 650.888 410.521 656.783 413.757 663.949C416.993 671.116 419.767 678.629 422.079 686.488C424.391 694.348 425.662 701.861 425.893 709.028C426.125 716.194 424.738 725.787 421.732 737.808C418.727 749.829 417.34 758.382 417.571 763.468C417.803 768.554 418.496 772.946 419.652 776.645C420.23 778.494 420.808 780.344 421.386 782.193C409.712 772.368 398.037 762.543 386.363 752.719C363.015 733.069 342.094 713.998 323.601 695.504C305.107 677.01 293.78 664.99 289.619 659.442C285.458 653.893 282.881 649.661 282.881 649.661C282.881 649.661 284.186 648.23 285.804 646.612C287.422 644.993 288.694 643.26 289.619 641.41C290.543 639.561 290.774 637.596 290.312 635.515C289.85 633.435 288.347 632.279 285.804 632.048C283.261 631.817 279.794 632.51 275.402 634.128C274.027 634.635 267.631 636.626 267.631 636.626L205.321 574.844C205.321 574.844 223.253 554.486 232.057 544.665C250.088 524.554 261.726 513.949 261.726 513.949ZM920.02 514.498C921.407 514.498 923.141 514.96 925.221 515.885C927.302 516.809 929.382 518.659 931.463 521.433C932.503 522.82 933.543 524.207 934.584 525.594C934.699 525.363 934.815 525.132 934.93 524.9C935.162 524.438 934.584 523.282 933.197 521.433C932.503 520.508 931.81 519.584 931.116 518.659C932.85 519.468 934.584 520.277 936.317 521.086C939.785 522.704 942.212 524.785 943.599 527.328C944.986 529.871 945.68 532.76 945.68 535.997C945.68 537.615 945.68 539.233 945.68 540.851C945.911 540.851 946.142 540.851 946.373 540.851C946.836 540.851 947.182 539.349 947.414 536.343C947.645 533.338 946.951 530.449 945.333 527.674C943.715 524.9 943.137 522.935 943.599 521.78C944.062 520.624 945.132 518.998 946.288 518.304C946.862 517.96 948.441 517.392 950.084 517.236C951.749 517.076 953.478 517.33 954.002 517.272C954.002 518.197 954.002 519.121 954.002 520.046C954.002 520.971 954.002 521.895 954.002 522.82C954.464 521.548 954.927 520.277 955.389 519.006C956.314 516.463 958.51 515.076 961.977 514.845C965.445 514.613 967.641 515.191 968.566 516.578C969.086 517.359 969.704 519.14 969.372 520.964C969.114 522.383 967.986 523.936 967.695 524.367C966.622 525.956 964.761 527.884 964.476 528.597C964.938 528.366 969.454 523.946 969.916 523.714C970.378 524.755 970.877 526.287 971.34 527.328C972.264 529.408 972.727 531.142 972.727 532.529C972.727 533.916 971.568 534.329 968.331 535.716C965.095 537.103 961.724 539.617 959.182 542.391C957.91 543.778 956.66 545.706 955.389 547.093C956.198 546.284 961.977 541.314 965.445 539.464C968.912 537.615 973.189 536.575 978.275 536.343C983.361 536.112 986.828 536.69 988.677 538.077C990.527 539.464 991.451 541.198 991.451 543.278C991.451 545.359 990.758 548.017 989.371 551.254C987.984 554.49 986.481 556.571 984.863 557.495C983.245 558.42 980.702 558.651 977.234 558.189C975.501 557.958 973.767 557.727 972.033 557.495C972.842 557.958 973.651 558.42 974.46 558.882C976.079 559.807 978.044 560.154 980.355 559.923C981.511 559.807 982.667 559.692 983.823 559.576C982.551 560.616 981.28 561.657 980.009 562.697C977.466 564.777 975.385 565.702 973.767 565.471C972.149 565.24 968.566 563.737 963.018 560.963C960.243 559.576 957.469 558.189 954.695 556.802C955.389 557.842 956.082 558.882 956.776 559.923C958.163 562.003 960.59 564.546 964.058 567.551C965.792 569.054 969.588 571.445 968.98 572.623C968.005 574.513 961.887 574.307 953.565 574.307C945.243 574.307 939.669 574.371 935.971 573.446C932.272 572.522 930.307 571.597 930.076 570.672C929.845 569.747 931.347 568.014 934.584 565.471C937.82 562.928 939.901 560.963 940.825 559.576C941.288 558.882 941.75 558.189 942.212 557.495C940.941 558.42 939.669 559.345 938.398 560.269C935.855 562.119 933.312 563.506 930.769 564.431C928.226 565.355 925.684 564.777 923.141 562.697C920.598 560.616 918.055 559.229 915.512 558.536C912.969 557.842 911.12 556.918 909.964 555.762C908.808 554.606 908.23 553.45 908.23 552.294C908.23 551.138 909.27 550.214 911.351 549.52C913.432 548.827 915.165 548.595 916.552 548.827C917.939 549.058 918.748 548.942 918.98 548.48C919.095 548.249 919.211 548.017 919.326 547.786C918.286 547.671 917.246 547.555 916.206 547.44C914.125 547.208 912.044 547.555 909.964 548.48C907.883 549.404 906.034 548.595 904.416 546.053C902.798 543.51 902.451 541.66 903.376 540.504C904.3 539.349 906.496 538.655 909.964 538.424C913.432 538.193 918.98 539.58 926.608 542.585C930.423 544.088 934.237 545.59 938.051 547.093C937.473 546.515 936.895 545.937 936.317 545.359C935.162 544.203 931.925 542.701 926.608 540.851C921.291 539.002 917.593 537.268 915.512 535.65C913.432 534.032 912.391 531.72 912.391 528.715C912.391 527.212 912.391 525.71 912.391 524.207C913.547 525.247 914.703 526.287 915.859 527.328C918.171 529.408 920.829 531.026 923.834 532.182C925.337 532.76 926.839 533.338 928.342 533.916C926.608 532.876 924.874 531.836 923.141 530.795C919.673 528.715 917.015 526.75 915.165 524.9C913.316 523.051 912.391 521.317 912.391 519.699C912.391 518.081 913.316 516.809 915.165 515.885C917.015 514.96 918.633 514.498 920.02 514.498ZM936.664 527.674C937.126 528.368 937.589 529.062 938.051 529.755C937.589 529.062 937.126 528.368 936.664 527.674C936.202 526.981 935.739 526.287 935.277 525.594C935.739 526.287 936.202 526.981 936.664 527.674ZM949.777 550.299C949.315 550.184 948.959 549.982 948.496 549.866C948.031 549.75 944.587 548.015 942.401 545.917C940.245 543.847 939.303 541.763 939.074 541.189C938.963 540.912 939.56 537.989 937.426 537.124C935.855 536.486 935.403 537.088 936.121 539.282C936.895 541.643 938.513 542.932 939.438 544.319C940.363 545.706 941.981 547.324 944.293 549.173C944.889 549.651 948.676 551.729 948.676 551.729C948.676 551.729 944.878 552.669 941.052 552.232C938.174 551.904 935.081 550.235 934.684 549.938C934.601 549.876 933.169 547.837 933.169 547.837C933.169 547.837 929.808 545.511 930.534 547.737C931.093 549.45 931.438 549.75 932.192 550.237C933.713 551.219 936.73 552.395 940.146 553.06C943.954 553.801 946.612 553.15 946.612 553.15C946.612 553.15 943.562 554.515 941.576 554.682C939.52 554.855 937.456 554.679 937.042 554.659C934.944 554.56 932.492 554.221 931.103 554.059C930.571 553.997 930.128 553.896 929.763 553.794C928.874 553.543 925.059 552.556 925.609 553.952C926.088 555.168 927.778 555.682 928.357 555.837C929.002 556.009 929.858 555.428 930.91 555.377C932.046 555.323 938.175 556.449 942.296 555.652C947.419 554.662 949.593 553.133 949.791 553.053C949.097 553.631 947.76 555.184 947.067 555.762C945.68 556.918 945.102 557.842 945.333 558.536C945.564 559.229 946.027 559.576 946.72 559.576C947.414 559.576 948.338 558.536 949.494 556.455C950.091 555.381 951.7 552.99 951.7 552.99C951.7 552.99 954.987 553.099 956.776 552.988C960.475 552.756 963.595 551.947 966.138 550.56C967.694 549.712 969.874 548.312 970.775 547.131C971.059 546.758 972.025 545.63 971.095 544.745C970.377 544.062 970.084 544.14 969.054 544.797C967.854 545.564 967.42 547.66 966.175 548.656C963.864 550.505 960.475 551.369 958.163 551.601C957.418 551.675 956.9 551.809 955.874 551.761C955.308 551.734 954.154 551.491 953.743 551.532C954.159 551.209 954.959 551.061 955.558 550.818C956.456 550.452 957.192 550.006 957.816 549.52C959.897 547.902 961.877 546.739 961.266 544.836C960.783 543.331 959.088 545.475 958.856 546.053C958.606 546.678 958.783 547.408 957.992 547.966C957.635 548.217 956.715 549.625 954.675 550.098C954.225 550.203 951.538 550.436 951.228 550.56C951.112 549.52 950.912 549.285 950.796 548.245C950.565 546.164 951.232 542.817 952.157 540.967C952.347 540.588 953.149 538.852 953.135 538.102C953.125 537.531 953.178 534.455 951.22 534.394C949.792 534.35 949.7 536.436 949.618 537.811C949.537 539.177 950.641 540.84 950.519 541.225C950.369 541.698 949.65 542.639 949.388 544.955C948.996 548.419 949.838 549.198 949.777 550.299ZM943.249 565.792C942.678 566.281 941.283 567.765 939.683 568.618C936.752 570.181 933.197 571.216 933.197 571.366C934.006 571.366 934.815 571.366 935.624 571.366C937.242 571.366 939.438 570.441 942.212 568.592C944.986 566.742 947.529 565.818 949.841 565.818C952.153 565.818 954.811 566.858 957.816 568.938C960.821 571.019 965.792 572.059 966.485 572.059C964.52 570.788 962.555 569.516 960.59 568.245C956.66 565.702 953.584 563.869 950.579 563.638C947.574 563.407 944.867 564.405 943.249 565.792ZM951.588 575.771L949.931 582.691C949.931 582.691 956.351 581.811 957.391 581.927C957.276 582.852 955.347 588.603 955.347 588.603C955.347 588.603 961.611 587.463 962.651 587.694C962.42 588.272 960.885 594.812 960.885 594.812L968.372 593.951L966.602 600.696L973.188 599.839L971.773 606.585L978.823 605.507L977.55 612.867L985.208 612.032L983.621 619.295L991.538 618.923L989.648 625.17L996.631 624.739L995.099 631.335L1001.51 630.965L1000.28 637.791L1006.89 636.966L1006.16 644.111L1012.76 643.676L1011.52 650.378L1004.69 651.246L1005.3 644.879L998.311 645.246L999.08 638.636L992.239 638.957L993.669 632.472L986.672 632.674L988.286 626.55L981.485 627.383L982.656 620.291L975.403 620.403L976.864 613.519L969.793 613.869L971 607.299L964.729 608.115L965.491 601.642C965.491 601.642 959.453 602.86 958.76 602.86C958.875 602.166 959.95 595.781 959.95 595.781C959.95 595.781 953.705 596.467 953.012 596.583C953.012 595.658 954.444 589.358 954.444 589.358C954.444 589.358 948.288 590.531 947.711 590.647C947.711 589.838 949.159 583.677 949.159 583.677L941.478 584.759L943.784 577.226L951.588 575.771ZM780.624 580.035C783.861 580.266 785.826 581.075 786.519 582.462C787.213 583.849 788.368 585.236 789.987 586.623C791.605 588.01 793.801 588.357 796.575 587.663C799.349 586.97 801.661 587.663 803.51 589.744C805.359 591.824 807.324 593.442 809.405 594.598C811.485 595.754 814.722 596.563 819.114 597.026C823.506 597.488 826.28 598.991 827.436 601.533C828.592 604.076 829.286 607.313 829.517 611.243C829.748 615.172 830.326 618.293 831.25 620.605C832.175 622.917 833.678 624.997 835.758 626.847C837.839 628.696 840.035 630.083 842.347 631.008C844.658 631.932 846.739 633.897 848.588 636.902C849.438 638.283 855.899 646.569 855.899 646.569C855.899 646.569 847.818 657.603 842.693 663.603C833.215 674.699 820.154 688.222 803.51 704.173C786.866 720.124 774.383 728.215 766.06 728.446C757.738 728.677 750.803 727.752 745.255 725.672C739.707 723.591 733.465 722.089 726.53 721.164C719.595 720.239 714.856 718.852 712.313 717.003C709.771 715.154 707.459 712.148 705.378 707.987C703.298 703.826 702.026 698.856 701.564 693.077C701.102 687.298 701.217 682.79 701.911 679.553C702.604 676.317 704.454 672.156 707.459 667.07C710.464 661.984 714.278 656.899 718.902 651.813C723.525 646.727 728.264 640.717 733.119 633.782C737.973 626.847 743.521 618.178 749.763 607.775C756.005 597.372 760.628 590.668 763.633 587.663C766.638 584.658 769.412 582.577 771.955 581.422C774.498 580.266 777.388 579.803 780.624 580.035ZM198.075 582.462L200.439 581.113L198.539 587.542L206.067 586.015L204.564 593.104L211.441 591.333L209.882 598.525L217.416 596.986L215.94 604.176L222.899 602.532L221.394 610.675L228.737 608.502L226.917 616.342L234.485 614.1L232.836 622.142L239.678 620.267L238.628 627.93L246.371 625.963L244.462 633.862L251.929 631.445L250.25 640.156L258.406 638.211L257.056 644.327L252.014 648.332L247.587 648.53L249.608 640.664C249.608 640.664 242.661 641.693 241.737 641.809C241.968 641 243.571 634.656 243.571 634.656L235.833 636.096L237.935 628.646C237.935 628.646 230.903 629.876 230.094 629.991C230.325 629.298 232.092 622.793 232.092 622.793C232.092 622.793 225.263 624.358 224.454 624.474C224.569 623.665 226.336 617.105 226.336 617.105C226.336 617.105 219.29 618.734 218.481 618.849C218.596 618.04 220.627 611.34 220.627 611.34L212.314 612.826L214.373 605.694L206.839 606.808L209.028 599.449L201.21 600.908C201.21 600.908 203.508 595.176 203.623 594.252C202.699 594.252 196.334 595.729 196.334 595.729L197.728 588.357C197.728 588.357 191.083 590.677 190.39 590.908C191.199 589.868 198.075 582.462 198.075 582.462ZM930.976 587.921L939.074 596.497L932.315 595.6C932.315 595.6 933.281 602.306 933.512 602.883C932.818 602.883 926.349 601.751 926.349 601.751C926.349 601.751 927.2 608.712 927.2 609.521C926.507 609.405 920.473 608.242 920.473 608.242L921.641 615.638L914.351 614.65C914.351 614.65 915.853 621.121 915.969 621.93C915.275 621.815 908.93 620.882 908.93 620.882C908.93 620.882 910.479 626.826 910.71 627.519C909.901 627.519 903.695 626.561 903.695 626.561C903.695 626.561 904.031 632.719 904.262 633.413C903.453 633.297 897.627 632.219 897.627 632.219L899.185 638.74L892.339 638.042C892.339 638.042 892.832 644.823 892.832 645.747C892.138 645.632 888.691 644.699 887.998 644.584C887.191 644.449 887.433 644.549 886.64 643.889C885.917 643.287 885.21 642.689 885.21 642.689C885.21 642.689 884.297 637.695 883.95 636.77C884.759 636.77 891.214 637.696 891.676 637.234C892.139 636.772 890.154 630.393 890.154 630.393L896.96 631.769L895.913 625.043L902.577 625.543C902.577 625.543 901.573 618.933 901.457 618.355C902.035 618.355 908.176 620.053 908.176 620.053C908.176 620.053 906.634 613.745 906.518 613.167C907.211 613.167 913.781 614.142 913.781 614.142L911.961 606.596L919.869 607.626C919.869 607.626 918.253 601.5 918.137 600.691C918.83 600.806 925.696 600.973 925.696 600.973L924.437 593.91L931.484 594.918L930.976 587.921ZM857.498 630.273C861.043 631.536 865.464 633.897 872.861 638.289C880.259 642.682 886.731 647.536 892.279 652.853C894.024 654.525 895.54 656.014 896.827 657.32C899.634 660.168 901.355 662.146 901.989 663.256C902.913 664.874 903.376 666.261 903.376 667.417C903.376 668.573 902.22 669.266 899.908 669.497C897.596 669.729 894.938 669.266 891.933 668.11C890.43 667.532 888.927 666.955 887.425 666.377C888.166 663.954 893.092 666.727 894.387 665.587C895.884 664.27 890.786 656.035 885.899 651.707C881.011 647.38 875.472 643.59 867.708 640.451C862.971 638.536 857.082 636.946 856.189 638.84C855.873 639.512 858.342 642.933 856.91 644.878L855.746 643.29L853.096 639.676C850.553 636.209 849.282 633.782 849.282 632.395C849.282 631.008 849.594 630.316 849.975 629.967C851.276 628.778 852.931 628.647 857.498 630.273ZM285.111 634.475C286.729 634.475 287.654 635.169 287.885 636.556C288.116 637.943 287.307 640.023 285.458 642.797C283.608 645.571 281.451 647.594 281.451 647.594L279.776 644.964C279.776 644.964 282.324 642.559 282.151 640.916C282.025 639.718 281.676 639.497 273.49 642.246C271.921 642.773 265.454 645.783 261.24 648.819C255.181 653.184 255.258 653.263 251.792 657.238C234.378 677.21 249.652 667.564 249.652 667.564L251.253 669.305C251.253 669.305 240.482 675.434 237.605 672.618C235.283 670.345 240.033 664.412 243.5 660.482C246.968 656.552 251.707 652.391 257.717 647.999C263.728 643.606 269.391 640.254 274.708 637.943C280.025 635.631 283.493 634.475 285.111 634.475ZM865.579 643.144C867.66 643.375 870.665 644.762 874.595 647.305C878.525 649.848 881.646 652.275 883.957 654.587C886.269 656.899 887.964 658.922 887.964 660.309C887.964 661.696 885.784 663.667 885.784 663.667C885.784 663.667 884.267 661.664 882.388 659.444C880.959 657.755 878.678 655.684 876.859 653.957C874.162 651.397 866.388 647.189 864.539 646.265C864.539 646.388 870.672 650.733 875.155 655.576C879.081 659.817 883.561 666.127 883.561 666.127C883.561 666.127 880.49 669.035 877.716 671.578C874.942 674.121 872.052 674.699 869.047 673.312C867.544 672.618 866.042 671.925 864.539 671.231C865.464 672.503 866.388 673.774 867.313 675.046C869.162 677.588 855.408 692.499 826.049 719.777C796.691 747.055 765.829 774.218 733.465 801.264C701.102 828.311 670.009 853.047 640.188 875.47C610.367 897.894 594.07 909.105 594.07 909.105C594.07 909.105 589.446 906.909 582.974 902.517C579.737 900.321 576.501 898.125 573.264 895.929C587.135 885.757 601.005 875.586 614.875 865.414C642.616 845.071 669.2 824.613 694.629 804.039C720.058 783.464 743.059 763.93 763.633 745.437C784.207 726.943 799.811 712.38 810.445 701.746C821.079 691.112 830.21 681.403 837.839 672.618C841.653 668.226 845.467 663.834 849.282 659.442C849.744 659.904 850.206 660.366 850.669 660.829C851.593 661.753 852.056 662.678 852.056 663.603C852.056 664.527 850.553 666.955 847.548 670.884C844.543 674.814 834.371 685.217 817.034 702.092C799.696 718.968 785.71 731.913 775.076 740.929C764.442 749.945 759.125 756.186 759.125 756.533C759.472 756.533 764.558 753.643 771.262 747.864C777.966 742.085 791.027 729.948 810.445 711.455C829.863 692.961 841.884 680.94 846.508 675.392C851.131 669.844 854.483 667.186 856.564 667.417C857.604 667.532 859.399 667.582 860.44 667.698C859.805 667.006 856.957 664.912 854.965 662.793C852.967 660.668 851.825 658.518 851.709 658.054C851.478 657.13 853.212 654.356 856.91 649.732C860.609 645.109 863.499 642.913 865.579 643.144ZM275.878 644.92L287.524 661.843C287.524 661.843 284.445 663.954 281.412 667.098C279.742 668.829 277.546 671.389 277.546 671.389C277.546 671.389 283.967 667.888 283.967 667.888C283.967 667.888 286.382 670.538 289.619 674.699C292.855 678.86 298.403 684.87 306.263 692.73C314.123 700.59 325.219 711.108 339.551 724.285C353.884 737.461 365.211 747.517 373.533 754.452C381.856 761.388 392.989 769.026 393.336 768.911C387.672 764.056 376.77 754.452 371.106 749.598C359.779 739.889 345.099 726.365 327.068 709.028C309.037 691.69 297.941 680.594 293.78 675.739C289.619 670.884 287.422 667.995 287.191 667.07C286.96 666.145 287.307 665.452 288.232 664.99C289.156 664.527 292.739 667.995 298.981 675.392C305.223 682.79 313.66 691.69 324.294 702.092C334.928 712.495 353.537 729.139 380.122 752.025C406.706 774.911 436.181 798.722 468.544 823.457C500.908 848.192 525.643 866.57 542.75 878.591C559.857 890.612 571.993 898.818 579.159 903.211C586.326 907.603 600.284 917.692 607.913 922.084C611.311 924.041 618.113 928.843 618.113 928.843C618.113 928.843 616.737 931.289 616.609 933.725C616.378 938.117 616.903 941.597 618.689 943.781C620.522 946.022 622.407 947.033 623.916 948.451C622.407 948.231 620.553 948.47 619.722 948.599C617.645 948.921 617.133 949.079 614.938 950.921C613.435 952.181 612.398 952.761 612.398 952.761C612.398 952.761 601.22 946.061 592.205 940.08C583.189 934.098 581.654 933.005 574.998 928.524C551.65 912.804 521.945 891.536 485.882 864.721C449.82 837.905 416.647 812.014 386.363 787.047C356.08 762.081 333.888 743.241 319.786 730.526C305.685 717.812 293.664 706.485 283.724 696.544C273.783 686.604 268.564 680.843 268.564 680.843C268.564 680.843 272.863 675.183 273.557 674.258C272.285 674.605 270.514 676.193 268.892 677.172C266.843 678.409 266.705 678.827 266.705 678.827C266.705 678.827 252.251 663.954 252.251 663.954C252.251 663.954 252.266 660.596 258.435 654.64C260.253 652.884 262.634 650.96 264.492 649.552C265.744 648.603 266.759 647.888 267.203 647.619C274.646 643.096 275.878 644.92 275.878 644.92ZM460.569 681.634C461.725 681.634 463.343 682.443 465.424 684.061C467.504 685.679 469.585 687.644 471.665 689.956C473.746 692.268 483.802 700.821 501.833 715.616C519.864 730.411 529.804 739.773 531.654 743.703C533.503 747.633 536.277 750.985 539.976 753.759C543.675 756.533 546.102 760.347 547.258 765.202C548.414 770.056 550.379 773.64 553.153 775.951C555.927 778.263 557.661 780.112 558.354 781.499C559.048 782.886 558.816 786.816 557.661 793.289C556.505 799.762 556.967 805.079 559.048 809.24C561.128 813.401 562.168 816.406 562.168 818.255C562.168 820.105 561.59 822.417 560.435 825.191C559.279 827.965 558.585 830.623 558.354 833.166C558.123 835.709 559.163 842.875 561.475 854.665C563.787 866.454 564.596 873.274 563.902 875.123C563.209 876.973 562.053 878.591 560.435 879.978C558.816 881.365 557.083 881.943 555.233 881.712C553.384 881.481 545.64 876.51 532.001 866.801C518.362 857.092 505.069 847.383 492.124 837.674C479.178 827.965 471.665 821.723 469.585 818.949C467.504 816.175 466.695 812.361 467.157 807.506C467.62 802.651 467.62 799.3 467.157 797.45C466.695 795.601 465.539 792.596 463.69 788.435C461.84 784.273 459.644 780.459 457.101 776.992C454.559 773.524 452.709 770.519 451.553 767.976C450.398 765.433 450.051 762.543 450.513 759.307C450.975 756.071 452.709 752.603 455.714 748.904C458.72 745.206 460.685 741.854 461.609 738.849C462.534 735.843 462.881 733.185 462.65 730.873C462.418 728.561 461.147 725.787 458.835 722.551C456.524 719.315 455.483 717.118 455.714 715.963C455.946 714.807 456.755 713.651 458.142 712.495C459.529 711.339 460.453 710.183 460.916 709.028C461.378 707.872 461.609 706.6 461.609 705.213C461.609 703.826 460.8 701.283 459.182 697.585C457.564 693.886 456.755 690.881 456.755 688.569C456.755 686.257 457.101 684.523 457.795 683.368C458.488 682.212 459.413 681.634 460.569 681.634ZM665.155 710.415C667.235 710.646 669.085 711.339 670.703 712.495C672.321 713.651 673.824 716.309 675.211 720.47C676.598 724.632 678.1 727.521 679.718 729.139C681.337 730.758 683.186 732.029 685.266 732.954C687.347 733.878 689.543 734.456 691.855 734.687C694.167 734.919 696.594 736.421 699.137 739.195C701.68 741.969 704.916 743.819 708.846 744.743C712.776 745.668 716.821 748.095 720.982 752.025C725.143 755.955 729.304 758.614 733.465 760.001C735.546 760.694 737.627 761.388 739.707 762.081C733.003 767.745 726.299 773.408 719.595 779.072C706.187 790.399 690.352 803.229 672.09 817.562C653.827 831.895 636.374 845.187 619.73 857.439C603.085 869.691 593.723 875.817 591.643 875.817C589.562 875.817 587.597 875.008 585.748 873.39C583.898 871.771 582.511 869.46 581.587 866.454C580.662 863.449 580.546 857.323 581.24 848.076C581.933 838.83 581.471 831.085 579.853 824.844C578.235 818.602 577.541 813.401 577.772 809.24C578.003 805.079 578.466 802.305 579.159 800.918C579.853 799.531 581.702 797.797 584.707 795.716C587.713 793.636 590.602 790.977 593.376 787.741C596.15 784.505 598.462 780.228 600.311 774.911C602.161 769.594 603.895 765.78 605.513 763.468C607.131 761.156 608.634 757.689 610.021 753.065C611.408 748.442 613.141 744.512 615.222 741.276C617.302 738.039 621.695 733.647 628.399 728.099C635.103 722.551 642.384 718.159 650.244 714.922C658.104 711.686 663.074 710.183 665.155 710.415ZM695.322 811.32C673.13 829.814 651.978 846.227 631.866 860.56C621.81 867.726 611.754 874.892 601.698 882.058C605.744 879.747 609.789 877.435 613.835 875.123C621.926 870.5 632.906 863.103 646.777 852.931C660.647 842.76 677.869 829.352 698.443 812.707C719.017 796.063 729.767 784.158 729.304 783.927C728.842 783.696 717.515 792.827 695.322 811.32ZM557.314 920.548C560.781 922.976 564.249 925.403 567.716 927.83C564.018 930.373 560.319 932.916 556.62 935.459C553.626 937.517 549.704 940.049 544.854 943.055C537.722 947.474 529.774 953.394 518.628 959.861C499.903 970.726 485.998 976.492 479.294 978.11C472.59 979.728 466.464 980.421 460.916 980.19C455.368 979.959 451.553 979.266 449.473 978.11C447.392 976.954 446.583 975.798 447.046 974.642C447.508 973.486 455.946 968.401 472.359 959.385C488.772 950.369 505.3 940.429 521.945 929.564C530.063 924.265 546.966 913.616 546.966 913.616C546.966 913.616 553.761 918.061 557.314 920.548ZM633.991 916.184C636.071 916.647 637.299 919.046 637.761 922.282C637.992 923.9 638.223 925.518 638.455 927.137C638.57 925.981 638.686 924.825 638.801 923.669C639.032 921.357 639.379 920.086 639.842 919.855C640.304 919.624 641.691 920.779 644.003 923.322C646.314 925.865 647.47 928.639 647.47 931.644C647.47 934.65 646.661 938.233 645.043 942.394C643.425 946.555 643.193 952.681 643.309 953.49C643.309 953.49 644.661 947.182 647.187 941.822C649.746 936.392 653.484 931.904 654.315 931.107C656.447 929.062 657.733 929.508 661.432 928.352C665.131 927.196 667.12 926.559 668.969 925.403C669.908 924.816 673.338 923.969 675.541 924.826C677.674 925.657 678.597 928.164 678.484 929.302C678.253 931.613 676.33 934.246 673.094 937.714C671.475 939.448 669.2 940.66 667.582 942.394C667.813 942.509 671.887 941.069 675.123 937.833C676.741 936.214 677.798 934.865 679.014 932.579C678.949 933.857 679.003 936.599 678.745 939.049C678.493 941.439 677.932 943.543 677.539 944.375C676.659 946.236 676.266 946.817 673.658 949.799C671.05 952.78 667.155 954.011 665.92 954.422C665.242 954.647 655.006 959.164 653.018 959.732C651.4 960.194 649.782 960.656 648.164 961.119C649.204 961.234 650.244 961.35 651.284 961.465C653.365 961.697 657.104 959.305 661.265 957.687C665.426 956.068 670.701 955.824 674.399 956.286C678.098 956.748 678.891 958.142 679.395 959.045C679.886 959.922 679.736 960.382 679.674 961.146C679.212 960.914 678.447 960.656 677.985 960.425C677.06 959.963 675.557 959.847 673.477 960.078C671.396 960.31 670.356 961.581 670.356 961.812C671.396 961.697 672.437 961.581 673.477 961.465C675.557 961.234 677.291 961.581 678.678 962.506C680.065 963.43 680.643 964.586 680.412 965.973C680.181 967.36 679.487 968.863 678.331 970.481C677.176 972.099 675.673 972.908 673.824 972.908C671.974 972.908 669.894 972.33 667.582 971.175C666.426 970.597 665.27 970.019 664.114 969.441C664.461 969.903 669.258 973.52 672.494 974.213C674.113 974.56 675.904 974.295 675.904 974.295C675.904 974.295 674.748 975.682 674.17 976.376C673.014 977.763 670.356 978.688 666.195 979.15C662.034 979.612 659.491 979.612 658.566 979.15C657.642 978.688 657.064 977.069 656.833 974.295C656.601 971.521 655.677 969.21 654.058 967.36C652.44 965.511 650.938 964.355 649.551 963.893C648.857 963.662 648.164 963.43 647.47 963.199C648.626 964.471 649.782 965.742 650.938 967.014C653.249 969.556 654.521 971.984 654.752 974.295C654.855 975.32 655.109 977.314 654.31 979.898C653.822 981.474 652.798 984.066 651.716 985.082C650.953 985.8 649.336 986.65 648.487 986.241C647.812 985.915 647.955 985.06 647.662 984.032C647.017 981.77 645.832 977.049 645.601 975.777C645.601 976.635 645.449 979.505 645.664 981.804C645.855 983.841 646.224 985.908 645.943 986.923C645.345 989.085 644.601 990.399 642.816 990.834C636.935 992.266 632.457 989.411 632.223 988.257C632.107 987.689 632.712 986.629 633.449 984.974C634.877 981.767 634.525 978.688 634.293 978.456C633.831 979.959 633.369 981.462 632.906 982.964C631.982 985.969 629.381 987.748 628.456 987.748C627.532 987.748 626.297 986.968 625.835 985.118C625.372 983.269 625.203 981.672 626.359 978.204C627.514 974.737 629.988 972.948 631.519 970.828C633.408 968.213 635.449 964.008 635.68 963.199C634.293 964.817 632.906 966.436 631.519 968.054C628.745 971.29 628.094 972.493 623.74 974.047C619.386 975.6 611.304 974.325 610.958 974.094C611.77 973.769 614.736 973.193 617.226 972.061C620.048 970.777 622.381 968.932 622.504 968.747C620.192 969.672 617.88 970.597 615.569 971.521C610.945 973.371 606.835 972.071 605.911 970.916C605.367 970.236 603.371 968.016 603.301 965.275C603.252 963.354 604.716 960.745 605.859 960.078C608.634 958.46 611.408 956.38 614.182 953.837C616.956 951.294 619.73 950.023 622.504 950.023C625.278 950.023 627.705 950.832 629.786 952.45C630.826 953.259 631.866 954.068 632.906 954.877C632.906 954.53 632.328 952.219 631.173 951.063C630.017 949.907 628.745 949.098 627.358 948.635C625.971 948.173 624.353 947.133 622.504 945.515C620.654 943.897 619.383 942.163 618.689 940.313C617.996 938.464 617.765 936.499 617.996 934.419C618.227 932.338 618.921 930.489 620.076 928.87C621.232 927.252 622.273 926.674 623.197 927.137C624.122 927.599 625.278 928.986 626.665 931.298C627.358 932.454 628.052 933.609 628.745 934.765C628.052 932.916 627.358 931.067 626.665 929.217C625.278 925.518 625.609 921.864 627.689 919.321C629.77 916.778 631.91 915.722 633.991 916.184ZM520.211 936.499C513.969 940.891 503.22 947.48 487.963 956.264C480.334 960.656 472.705 965.049 465.077 969.441C466.695 968.863 468.313 968.285 469.931 967.707C473.168 966.551 480.218 963.084 491.083 957.304C501.948 951.525 510.964 946.093 518.13 941.007C525.297 935.921 532.755 929.354 532.523 929.122C532.061 928.66 526.453 932.107 520.211 936.499ZM629.439 935.806C629.67 936.152 629.901 936.499 630.132 936.846C629.901 936.499 629.67 936.152 629.439 935.806C629.208 935.459 628.977 935.112 628.745 934.765C628.977 935.112 629.208 935.459 629.439 935.806ZM651.002 946.923C650.882 949.579 645.736 956.878 644.201 956.192C642.185 955.29 640.509 949.911 640.253 949.226C640.161 948.977 640.346 948.392 640.074 947.009C639.813 945.684 637.398 942.509 636.261 944.322C635.936 944.841 636.144 947.109 637.085 948.783C637.428 949.392 638.968 949.905 639.06 950.127C639.06 950.127 642.276 955.9 642.212 956.118C641.726 956.543 639.12 955.491 637.813 954.667C633.959 952.237 635.102 951.904 635.17 951.448C635.29 950.649 635.139 950.008 634.443 949.735C633.748 949.461 633.281 950.028 633.057 950.57C632.677 951.489 632.953 952.445 633.607 952.981C633.933 953.249 635.207 954.34 636.724 955.216C638.249 956.098 641.301 957.002 641.48 957.189C641.789 957.513 638.106 958.255 636.999 958.305C634.145 958.431 630.102 957.319 629.52 957.027C628.081 956.306 628.288 956.345 627.024 955.793C625.761 955.241 623.974 955.079 623.381 956.9C622.857 958.508 624.969 959.469 626.733 959.231C627.907 959.072 628.839 958.878 629.45 958.878C630.387 958.878 633.053 959.315 635.909 959.337C638.606 959.358 642.589 958.371 642.589 958.371C642.589 958.371 638.393 963.727 638.149 964.194C637.829 964.807 636.473 965.412 636.06 966.295C635.754 966.949 635.191 968.014 636.08 968.52C636.98 969.032 637.785 968.121 638.275 967.42C638.802 966.665 638.682 965.312 638.901 964.975C639.361 964.269 642.251 960.69 643.8 959.366C642.94 960.842 642.5 965.276 642.372 965.611C642.118 966.277 641.761 967.349 641.761 967.349C641.761 967.349 641.173 969.397 642.306 969.723C643.526 970.074 644.117 969.083 644.151 968.43C644.226 967 644.044 967.271 644.068 966.156C644.093 965.043 644.51 962.18 644.739 960.813C645.311 957.409 646.485 957.967 649.028 957.504C651.571 957.042 654.231 956.605 655.699 955.06C657.232 953.445 658.729 950.693 657.229 949.624C655.511 948.399 653.806 950.795 653.444 952.14C653.094 953.441 653.095 955.169 651.015 955.862C649.975 956.209 647.229 956.236 646.189 956.583C647.968 955.019 649.26 953.693 650.229 952.031C652.204 948.644 653.904 945.334 654.13 944.201C654.378 942.954 653.81 939.38 651.857 941.523C651.39 942.035 651.096 944.831 651.002 946.923ZM682.146 968.054C684.689 969.556 687.231 971.059 689.774 972.562C694.86 975.567 697.865 977.532 698.79 978.456C699.715 979.381 700.061 980.19 699.83 980.884C699.599 981.577 697.879 983.754 693.025 984.91C690.208 985.581 686.67 986.133 683.974 986.086C681.278 986.04 678.986 985.535 675.697 985.001C669.498 983.996 662.59 981.88 662.474 981.649C664.092 981.302 668.738 981.231 670.356 980.884C673.592 980.19 676.366 977.879 678.678 973.949C679.834 971.984 680.99 970.019 682.146 968.054Z" fill="#000000" fill-rule="nonzero" opacity="1" stroke="none" vectornator:layerName="Curve 1"/>
<path d="M255.886 487.37C257.017 486.021 259.843 486.529 262.198 488.504C264.554 490.48 265.546 493.174 264.415 494.523C263.284 495.872 260.458 495.364 258.102 493.389C255.747 491.413 254.754 488.719 255.886 487.37Z" fill="#000000" fill-rule="nonzero" opacity="1" stroke="none" vectornator:layerName="Oval 7"/>
<path d="M264.546 655.337C266.908 653.437 269.711 653.001 270.805 654.363C271.899 655.724 270.872 658.367 268.509 660.266C266.147 662.166 263.345 662.602 262.25 661.241C261.156 659.879 262.184 657.236 264.546 655.337Z" fill="#000000" fill-rule="nonzero" opacity="1" stroke="none" vectornator:layerName="Oval 5"/>
<path d="M863.599 657.774C864.919 656.341 867.829 656.875 870.099 658.966C872.368 661.057 873.138 663.913 871.817 665.346C870.497 666.779 867.587 666.246 865.318 664.155C863.048 662.064 862.279 659.207 863.599 657.774Z" fill="#000000" fill-rule="nonzero" opacity="1" stroke="none" vectornator:layerName="Oval 4"/>
<path d="M852.441 486.597C851.375 485.401 852.139 482.979 854.148 481.189C856.156 479.398 858.649 478.916 859.715 480.113C860.782 481.309 860.018 483.73 858.009 485.521C856 487.311 853.508 487.793 852.441 486.597Z" fill="#000000" fill-rule="nonzero" opacity="1" stroke="none" vectornator:layerName="Oval 1"/>
<path d="M858.421 486.316C860.426 484.565 862.875 484.087 863.89 485.249C864.905 486.411 864.102 488.773 862.097 490.525C860.092 492.276 857.644 492.754 856.629 491.592C855.614 490.43 856.416 488.068 858.421 486.316Z" fill="#000000" fill-rule="nonzero" opacity="1" stroke="none" vectornator:layerName="Oval 3"/>
<path d="M862.424 491.561C864.401 489.766 866.845 489.237 867.881 490.38C868.918 491.522 868.155 493.902 866.178 495.697C864.201 497.491 861.758 498.02 860.721 496.878C859.684 495.736 860.447 493.355 862.424 491.561Z" fill="#000000" fill-rule="nonzero" opacity="1" stroke="none" vectornator:layerName="Oval 2"/>
<path d="M270.695 662.012C273.081 660.061 275.933 659.601 277.064 660.985C278.195 662.369 277.177 665.072 274.791 667.023C272.404 668.974 269.553 669.433 268.422 668.05C267.291 666.666 268.308 663.963 270.695 662.012Z" fill="#000000" fill-rule="nonzero" opacity="1" stroke="none" vectornator:layerName="Oval 6"/>
<path d="M261.66 480.547C262.809 479.212 265.595 479.726 267.883 481.695C270.171 483.665 271.094 486.343 269.945 487.678C268.796 489.013 266.01 488.499 263.722 486.53C261.434 484.561 260.511 481.882 261.66 480.547Z" fill="#000000" fill-rule="nonzero" opacity="1" stroke="none" vectornator:layerName="Oval 8"/>
</g>
</g>
</svg>
