<?xml version="1.0" encoding="UTF-8" standalone="no"?>
<!DOCTYPE svg PUBLIC "-//W3C//DTD SVG 1.1//EN" "http://www.w3.org/Graphics/SVG/1.1/DTD/svg11.dtd">
<!-- Created with Vectornator (http://vectornator.io/) -->
<svg height="100%" stroke-miterlimit="10" style="fill-rule:nonzero;clip-rule:evenodd;stroke-linecap:round;stroke-linejoin:round;" version="1.1" viewBox="0 0 283.5 283.5" width="100%" xml:space="preserve" xmlns="http://www.w3.org/2000/svg" xmlns:vectornator="http://vectornator.io" xmlns:xlink="http://www.w3.org/1999/xlink">
<defs/>
<g id="Layer-2" vectornator:layerName="Layer 2"/>
<g id="Layer-1" vectornator:layerName="Layer 1">
<path d="M190.98 66.0633C149.213 69.7316 150.257 107.559 150.257 107.559L137.272 126.815L156.418 143.968L139.667 162.319L155.355 179.605L149.193 216.117C157.238 209.893 176.467 193.756 191.912 179.868C218.718 155.765 225.542 142.14 225.542 142.14C238.992 121.812 235.311 102.643 231.785 92.9778C221.445 64.6333 190.98 66.0633 190.98 66.0633ZM197.09 72.6936C201.268 73.3508 205.411 74.5426 209.224 76.381C210.724 77.1041 215.603 79.7425 219.379 83.9776C223.276 88.3503 225.314 92.9407 225.938 94.5829C228.408 101.084 228.71 106.244 228.599 112.964C228.457 121.621 225.875 130.219 220.287 138.666C220.287 138.666 220.006 139.07 219.877 139.256C219.5 139.799 219.049 140.437 218.53 141.155C217.032 143.228 215.285 145.542 213.298 148.042C207.612 155.195 201.201 162.348 194.222 169.008C189.984 173.053 173.825 187.08 171.255 189.391C167.012 193.207 162.624 197.009 158.183 200.737L162.083 177.644L148.193 162.334L165.369 143.519L145.569 125.783C149.35 120.174 156.598 108.147 156.598 108.147C156.598 108.147 156.853 102.96 157.104 101.476C157.796 97.3818 159.069 93.3234 161.043 89.5864C163.454 85.0237 166.772 81.2099 171.152 78.3035C174.243 76.2528 181.933 73.3746 188.245 72.4017C192.622 71.7271 196.479 72.5973 197.09 72.6936ZM85.3959 65.8624C85.3959 65.8624 46.4249 65.866 46.6542 110.647C46.6542 110.647 45.2791 131.557 72.7893 160.199C72.7893 160.199 100.067 189.521 138.352 216.117L143.166 179.747L124.595 162.476L141.558 141.565L118.409 123.152L130.614 104.36C130.614 104.36 125.744 65.635 85.3959 65.8624ZM85.4274 72.1657C93.7907 72.1186 100.683 73.9161 106.339 77.2477C111.071 80.0355 114.887 83.8691 117.897 88.5306C120.268 92.2027 122.011 96.1778 123.2 100.152C123.519 101.22 123.727 102.154 123.933 103.075C121.564 106.72 110.002 124.515 110.002 124.515L132.655 142.534L115.991 163.075L136.492 182.15L134.221 206.683C134.221 206.683 105.234 183.304 93.0753 171.954C88.8236 167.985 79.2212 157.819 78.3835 156.945C78.0931 156.642 77.3355 155.834 77.3355 155.834C66.3579 144.405 59.4451 133.582 55.7467 123.695C54.4555 120.243 53.6557 117.153 53.2412 114.453C53.0947 113.499 52.9575 110.616 52.9575 110.616C52.9092 101.17 54.7402 93.6768 58.1026 87.853C60.8574 83.0814 64.6047 79.4929 69.157 76.8853C72.7403 74.8326 76.6311 73.4926 80.5266 72.7487C81.8866 72.489 83.1381 72.3271 84.2455 72.2366C84.6164 72.2062 84.934 72.1837 85.1989 72.1736C85.2814 72.1704 85.4274 72.1658 85.4274 72.1657Z" fill="#000000" fill-rule="nonzero" opacity="1" stroke="none" vectornator:layerName="Curve 1"/>
</g>
</svg>
